<!--?xml version="1.0" standalone="no"?-->
              <svg id="sw-js-blob-svg" viewBox="0 0 100 100" xmlns="http://www.w3.org/2000/svg" version="1.1">
                    <defs> 
                        <linearGradient id="sw-gradient" x1="0" x2="1" y1="1" y2="0">
                            <stop id="stop1" stop-color="rgba(50.395, 255, 50.857, 1)" offset="0%"></stop>
                            <stop id="stop2" stop-color="rgba(0, 203.459, 178.989, 1)" offset="100%"></stop>
                        </linearGradient>
                    </defs>
                <path fill="url(#sw-gradient)" d="M22.5,-26.5C30.6,-20.1,39.4,-14.3,41.8,-6.5C44.2,1.3,40.2,11.1,34.4,18.7C28.6,26.3,21,31.6,13,33.7C5,35.7,-3.6,34.4,-12.1,31.9C-20.6,29.3,-29.1,25.5,-32.3,19.1C-35.5,12.7,-33.2,3.6,-30.3,-4C-27.4,-11.7,-23.8,-17.9,-18.7,-24.8C-13.5,-31.7,-6.7,-39.3,0.3,-39.6C7.2,-39.9,14.5,-32.9,22.5,-26.5Z" width="100%" height="100%" transform="translate(50 50)" stroke-width="0" style="transition: all 0.3s ease 0s;"></path>
              </svg>